<?xml version="1.0" encoding="utf-8"?>
<!-- Generator: Adobe Illustrator 23.0.3, SVG Export Plug-In . SVG Version: 6.00 Build 0)  -->
<svg version="1.1" xmlns="http://www.w3.org/2000/svg" xmlns:xlink="http://www.w3.org/1999/xlink" x="0px" y="0px" width="24px"
  height="24px" viewBox="0 0 24 24" enable-background="new 0 0 24 24" xml:space="preserve" fill="#4285F4">
<g id="Bounding_Box">
 <rect fill="none" width="24" height="24"/>
</g>
<g id="Master">
 <g>
  <path d="M18.37,6.86l-4.95-4.95c-0.78-0.78-2.05-0.78-2.83,0L5.63,6.86C5.26,7.24,5.05,7.75,5.05,8.28V21c0,1.1,0.9,2,2,2h9.9
   c1.1,0,2-0.9,2-2V8.28C18.95,7.75,18.74,7.24,18.37,6.86z M12.05,3.95c0.83,0,1.5,0.67,1.5,1.5c0,0.83-0.67,1.5-1.5,1.5
   c-0.83,0-1.5-0.67-1.5-1.5C10.55,4.62,11.22,3.95,12.05,3.95z M15.45,16.48c0.01,1.45-0.87,3.57-3.46,3.52
   c-1.09,0.04-2.64-0.44-3.26-1.95l1.63-0.66c0.34,0.84,1.12,1.09,1.64,1.08c1.41,0.07,1.82-1.22,1.78-1.93V16h-0.1
   c-0.54,0.74-1.4,0.93-2.01,0.92c-1.87,0-3.15-1.63-3.12-3.45c-0.02-1.16,0.69-3.46,3.12-3.47c0.31-0.01,1.39,0.04,2.01,0.92h0.1
   v-0.71h1.67V16.48z"/>
  <path d="M11.99,11.57c-1.06-0.02-1.83,0.89-1.77,1.9c-0.06,1.01,0.71,1.92,1.77,1.9c1.04,0.02,1.81-0.89,1.75-1.9
   C13.8,12.44,13.06,11.54,11.99,11.57z"/>
 </g>
</g>
</svg>
